HIERARCHY
ROOT hip
{
  OFFSET 0 0 0
  CHANNELS 6 Xposition Yposition Zposition Zrotation Yrotation Xrotation
  JOINT abdomen
  {
    OFFSET 0 20.6881 -0.73152
    CHANNELS 3 Zrotation Xrotation Yrotation
    JOINT chest
    {
      OFFSET 0 11.7043 -0.48768
      CHANNELS 3 Zrotation Xrotation Yrotation
      JOINT neck
      {
        OFFSET 0 22.1894 -2.19456
        CHANNELS 3 Zrotation Xrotation Yrotation
        JOINT head
        {
          OFFSET -0.24384 7.07133 1.2192
          CHANNELS 3 Zrotation Xrotation Yrotation
          JOINT leftEye
          {
            OFFSET 4.14528 8.04674 8.04672
            CHANNELS 3 Zrotation Xrotation Yrotation
            End Site
            {
              OFFSET 1 0 0
            }
          }
          JOINT rightEye
          {
            OFFSET -3.6576 8.04674 8.04672
            CHANNELS 3 Zrotation Xrotation Yrotation
            End Site
            {
              OFFSET 1 0 0
            }
          }
        }
      }
      JOINT rCollar
      {
        OFFSET -2.68224 19.2634 -4.8768
        CHANNELS 3 Zrotation Xrotation Yrotation
        JOINT rShldr
        {
          OFFSET -8.77824 -1.95073 1.46304
          CHANNELS 3 Zrotation Xrotation Yrotation
          JOINT rForeArm
          {
            OFFSET -28.1742 -1.7115 0.48768
            CHANNELS 3 Zrotation Xrotation Yrotation
            JOINT rHand
            {
              OFFSET -22.5879 0.773209 7.07136
              CHANNELS 3 Zrotation Xrotation Yrotation
              JOINT rThumb1
              {
                OFFSET -1.2192 -0.487915 3.41376
                CHANNELS 3 Zrotation Xrotation Yrotation
                JOINT rThumb2
                {
                  OFFSET -3.37035 -0.52449 3.41376
                  CHANNELS 3 Zrotation Xrotation Yrotation
                  End Site
                  {
                    OFFSET -1.78271 -1.18214 1.43049
                  }
                }
              }
              JOINT rIndex1
              {
                OFFSET -7.75947 0.938293 5.60832
                CHANNELS 3 Zrotation Xrotation Yrotation
                JOINT rIndex2
                {
                  OFFSET -2.54057 -0.884171 1.56538
                  CHANNELS 3 Zrotation Xrotation Yrotation
                  End Site
                  {
                    OFFSET -1.62519 -0.234802 1.16502
                  }
                }
              }
              JOINT rMid1
              {
                OFFSET -8.24714 1.18213 3.41376
                CHANNELS 3 Zrotation Xrotation Yrotation
                JOINT rMid2
                {
                  OFFSET -3.10165 -0.590103 1.0647
                  CHANNELS 3 Zrotation Xrotation Yrotation
                  End Site
                  {
                    OFFSET -2.48547 -0.328903 0.83742
                  }
                }
              }
              JOINT rRing1
              {
                OFFSET -8.82822 0.546677 1.51678
                CHANNELS 3 Zrotation Xrotation Yrotation
                JOINT rRing2
                {
                  OFFSET -2.60934 -0.819778 -0.0198488
                  CHANNELS 3 Zrotation Xrotation Yrotation
                  End Site
                  {
                    OFFSET -2.33842 -0.294052 0.168128
                  }
                }
              }
              JOINT rPinky1
              {
                OFFSET -8.27202 -0.0477905 -0.4584
                CHANNELS 3 Zrotation Xrotation Yrotation
                JOINT rPinky2
                {
                  OFFSET -1.82734 -0.647385 -0.700984
                  CHANNELS 3 Zrotation Xrotation Yrotation
                  End Site
                  {
                    OFFSET -1.69225 -0.51767 -0.607171
                  }
                }
              }
            }
          }
        }
      }
      JOINT lCollar
      {
        OFFSET 2.68224 19.2634 -4.8768
        CHANNELS 3 Zrotation Xrotation Yrotation
        JOINT lShldr
        {
          OFFSET 8.77824 -1.95073 1.46304
          CHANNELS 3 Zrotation Xrotation Yrotation
          JOINT lForeArm
          {
            OFFSET 28.1742 -1.7115 0.48768
            CHANNELS 3 Zrotation Xrotation Yrotation
            JOINT lHand
            {
              OFFSET 22.5879 0.773209 7.07136
              CHANNELS 3 Zrotation Xrotation Yrotation
              JOINT lThumb1
              {
                OFFSET 1.2192 -0.487915 3.41376
                CHANNELS 3 Zrotation Xrotation Yrotation
                JOINT lThumb2
                {
                  OFFSET 3.37035 -0.52449 3.41376
                  CHANNELS 3 Zrotation Xrotation Yrotation
                  End Site
                  {
                    OFFSET 1.78271 -1.18214 1.43049
                  }
                }
              }
              JOINT lIndex1
              {
                OFFSET 7.75947 0.938293 5.60832
                CHANNELS 3 Zrotation Xrotation Yrotation
                JOINT lIndex2
                {
                  OFFSET 2.54057 -0.884171 1.56538
                  CHANNELS 3 Zrotation Xrotation Yrotation
                  End Site
                  {
                    OFFSET 1.62519 -0.234802 1.16502
                  }
                }
              }
              JOINT lMid1
              {
                OFFSET 8.24714 1.18213 3.41376
                CHANNELS 3 Zrotation Xrotation Yrotation
                JOINT lMid2
                {
                  OFFSET 3.10165 -0.590103 1.0647
                  CHANNELS 3 Zrotation Xrotation Yrotation
                  End Site
                  {
                    OFFSET 2.48547 -0.328903 0.83742
                  }
                }
              }
              JOINT lRing1
              {
                OFFSET 8.82822 0.546677 1.51678
                CHANNELS 3 Zrotation Xrotation Yrotation
                JOINT lRing2
                {
                  OFFSET 2.60934 -0.819778 -0.0198488
                  CHANNELS 3 Zrotation Xrotation Yrotation
                  End Site
                  {
                    OFFSET 2.33842 -0.294052 0.168128
                  }
                }
              }
              JOINT lPinky1
              {
                OFFSET 8.27202 -0.0477905 -0.4584
                CHANNELS 3 Zrotation Xrotation Yrotation
                JOINT lPinky2
                {
                  OFFSET 1.82734 -0.647385 -0.700984
                  CHANNELS 3 Zrotation Xrotation Yrotation
                  End Site
                  {
                    OFFSET 1.69225 -0.51767 -0.607171
                  }
                }
              }
            }
          }
        }
      }
    }
  }
  JOINT rButtock
  {
    OFFSET -8.77824 4.35084 1.2192
    CHANNELS 3 Zrotation Xrotation Yrotation
    JOINT rThigh
    {
      OFFSET 0 -1.70687 -2.19456
      CHANNELS 3 Zrotation Xrotation Yrotation
      JOINT rShin
      {
        OFFSET 0 -36.8199 0.73152
        CHANNELS 3 Zrotation Xrotation Yrotation
        JOINT rFoot
        {
          OFFSET 0.73152 -45.1104 -5.12064
          CHANNELS 3 Zrotation Xrotation Yrotation
          End Site
          {
            OFFSET -1.1221 -3.69964 12.103
          }
        }
      }
    }
  }
  JOINT lButtock
  {
    OFFSET 8.77824 4.35084 1.2192
    CHANNELS 3 Zrotation Xrotation Yrotation
    JOINT lThigh
    {
      OFFSET 0 -1.70687 -2.19456
      CHANNELS 3 Zrotation Xrotation Yrotation
      JOINT lShin
      {
        OFFSET 0 -36.8199 0.73152
        CHANNELS 3 Zrotation Xrotation Yrotation
        JOINT lFoot
        {
          OFFSET -0.73152 -45.1104 -5.12064
          CHANNELS 3 Zrotation Xrotation Yrotation
          End Site
          {
            OFFSET 1.1221 -3.69964 12.103
          }
        }
      }
    }
  }
}
MOTION
Frames: 4
Frame Time:	0.06666666
-8.69469 82.4804 -56.648 178.324 14.2206 -155.951 -13.2604 -26.1617 -9.35066 2.4116 14.4229 -1.75902 -6.58206 22.6805 1.82242 22.1422 -28.7911 9.52427 -0.0 0.0 0.0 -0.0 0.0 0.0 -1.01284e-13 -3.258e-13 4.28931e-13 85.5938 11.264 -9.72889 -16.3007 -8.97246 30.3034 -0.020037 -4.15305 -0.58462 -4.90927e-10 2.09983e-09 2.95225e-09 -8.56464e-10 3.64175e-09 5.10942e-09 -4.90928e-10 2.09982e-09 2.95225e-09 7.73091 5.47488 0.417314 -4.90928e-10 2.09982e-09 2.95226e-09 2.90554 0.965183 0.102902 -4.90923e-10 2.09982e-09 2.95226e-09 10.2786 0.731801 0.0259123 -4.90935e-10 2.09983e-09 2.95228e-09 2.22167 -0.733487 -0.20892 -1.0125e-13 -3.25816e-13 4.28679e-13 -67.3448 21.848 -11.4794 11.2256 -4.92004 -20.1209 0.00426595 1.89597 -0.266556 -1.11313e-09 -2.22362e-09 -2.04701e-09 -1.93257e-09 -3.84654e-09 -3.53399e-09 -1.11313e-09 -2.22362e-09 -2.04701e-09 -7.73091 5.47488 -0.417314 -1.11312e-09 -2.22362e-09 -2.04702e-09 -2.90554 0.965183 -0.102902 -1.11313e-09 -2.22362e-09 -2.04702e-09 -10.2786 0.731801 -0.0259123 -1.11312e-09 -2.22361e-09 -2.04703e-09 -2.22167 -0.733487 0.20892 -2.03217e-16 0.0 -3.88251e-19 -0.0596391 -43.5438 -0.314972 -0.227062 36.3738 0.969119 -9.39402 -17.9689 -21.7272 2.03217e-16 0.0 3.88251e-19 -4.1338 -33.8083 -7.26822 0.018948 10.3216 -0.0697324 0.481812 0.60292 -1.11253
-8.73039 82.592 -57.0228 177.889 14.5329 -156.141 -13.2655 -25.9292 -9.73969 2.62236 14.35 -1.90673 -6.79174 22.6062 1.92668 21.9987 -27.772 9.49618 -0.0 0.0 0.0 -0.0 0.0 0.0 8.66356e-14 -8.42705e-14 1.43274e-13 85.5431 12.7546 -10.1666 -16.6726 -9.32746 31.1058 -0.0329079 -5.17104 -0.728742 -2.05102e-09 -5.89789e-10 3.10158e-10 -3.54509e-09 -1.01965e-09 5.31298e-10 -2.05102e-09 -5.89793e-10 3.10155e-10 7.73091 5.47488 0.417314 -2.05103e-09 -5.89791e-10 3.10165e-10 2.90554 0.965183 0.102902 -2.05102e-09 -5.8979e-10 3.10164e-10 10.2786 0.731801 0.0259123 -2.05103e-09 -5.89786e-10 3.1018e-10 2.22167 -0.733487 -0.20892 8.67105e-14 -8.42979e-14 1.42926e-13 -66.7924 22.3168 -11.9997 11.2409 -4.93027 -20.1499 0.00214781 1.32319 -0.185996 -1.28591e-09 -2.58035e-09 -2.25799e-09 -2.2271e-09 -4.46253e-09 -3.90185e-09 -1.28592e-09 -2.58036e-09 -2.25799e-09 -7.73091 5.47488 -0.417314 -1.28591e-09 -2.58036e-09 -2.25799e-09 -2.90554 0.965183 -0.102902 -1.28592e-09 -2.58036e-09 -2.258e-09 -10.2786 0.731801 -0.0259123 -1.28591e-09 -2.58035e-09 -2.258e-09 -2.22167 -0.733487 0.20892 -2.03217e-16 0.0 -3.88251e-19 -0.0098167 -42.7507 -0.771241 -0.173659 33.1248 0.926126 -10.0889 -18.431 -22.9913 2.03217e-16 0.0 3.88251e-19 -4.10649 -33.2003 -7.0834 0.0134382 9.8439 -0.0807427 0.481752 0.548663 -0.948645
-8.66463 82.6996 -57.4191 178.006 14.926 -156.099 -12.8959 -26.1336 -9.88773 2.73509 14.4972 -1.99018 -6.80133 22.6821 1.68011 21.8818 -27.7626 8.94986 -0.0 0.0 0.0 -0.0 0.0 0.0 3.42394e-13 2.69066e-13 -4.67672e-14 85.3444 13.2585 -10.2363 -16.8278 -9.47856 31.4433 -0.0370107 -5.45613 -0.769188 -4.23555e-09 -9.54265e-10 -9.43074e-10 -7.31474e-09 -1.65199e-09 -1.64325e-09 -4.23553e-09 -9.54266e-10 -9.43084e-10 7.73091 5.47488 0.417314 -4.23555e-09 -9.54265e-10 -9.43071e-10 2.90554 0.965183 0.102902 -4.23554e-09 -9.54265e-10 -9.43072e-10 10.2786 0.731801 0.0259123 -4.23556e-09 -9.54263e-10 -9.43059e-10 2.22167 -0.733487 -0.20892 3.42361e-13 2.69045e-13 -4.70467e-14 -66.2125 22.9609 -12.5857 11.1929 -4.89858 -20.0583 0.00105751 0.879146 -0.123569 -3.26881e-09 -3.83818e-09 -1.89184e-09 -5.65183e-09 -6.63098e-09 -3.26479e-09 -3.26882e-09 -3.83819e-09 -1.89183e-09 -7.73091 5.47488 -0.417314 -3.26881e-09 -3.83819e-09 -1.89184e-09 -2.90554 0.965183 -0.102902 -3.26882e-09 -3.83819e-09 -1.89184e-09 -10.2786 0.731801 -0.0259123 -3.26881e-09 -3.83818e-09 -1.89185e-09 -2.22167 -0.733487 0.20892 -2.03217e-16 0.0 -3.88251e-19 0.390803 -41.9423 -1.25429 -0.132402 29.9619 0.867957 -10.3805 -18.7817 -23.4686 2.03217e-16 0.0 3.88251e-19 -3.64713 -32.6947 -6.56199 0.00993076 9.33078 -0.0848948 0.475503 0.559981 -0.982264
-8.57846 82.7989 -57.7911 178.131 15.3458 -155.853 -12.5293 -26.4304 -9.9169 2.80371 14.6137 -2.02674 -6.74459 22.8636 1.36539 21.8314 -28.1204 8.34781 -0.0 0.0 0.0 -0.0 0.0 0.0 5.38326e-13 5.20025e-13 -2.16129e-13 85.1994 13.3612 -10.2235 -16.9267 -9.57754 31.6544 -0.0369208 -5.47612 -0.771993 -5.50734e-09 -9.29474e-10 -1.37533e-09 -9.50869e-09 -1.60811e-09 -2.39393e-09 -5.50732e-09 -9.29472e-10 -1.37534e-09 7.73091 5.47488 0.417314 -5.50734e-09 -9.29473e-10 -1.37533e-09 2.90554 0.965183 0.102902 -5.50733e-09 -9.29474e-10 -1.37533e-09 10.2786 0.731801 0.0259123 -5.50735e-09 -9.29473e-10 -1.37532e-09 2.22167 -0.733487 -0.20892 5.38178e-13 5.20016e-13 -2.16327e-13 -65.6635 23.6184 -13.1227 11.1336 -4.85935 -19.9452 0.00062178 0.712002 -0.100071 -4.76718e-09 -4.83579e-09 -1.70529e-09 -8.24138e-09 -8.35098e-09 -2.93797e-09 -4.76719e-09 -4.8358e-09 -1.70528e-09 -7.73091 5.47488 -0.417314 -4.76717e-09 -4.8358e-09 -1.7053e-09 -2.90554 0.965183 -0.102902 -4.76719e-09 -4.8358e-09 -1.70529e-09 -10.2786 0.731801 -0.0259123 -4.76718e-09 -4.8358e-09 -1.7053e-09 -2.22167 -0.733487 0.20892 -2.03217e-16 0.0 -3.88251e-19 0.805876 -41.0859 -1.60951 -0.099577 26.8486 0.796887 -10.3264 -18.6842 -23.5824 2.03217e-16 0.0 3.88251e-19 -3.187 -32.2355 -5.96061 0.00854497 8.80361 -0.0845053 0.467716 0.572958 -1.03313
